<svg xmlns="http://www.w3.org/2000/svg" width="25" height="25" viewBox="0 0 25 25">
  <path id="Path_9" data-name="Path 9" d="M3.911,2.178H5.924V4.842a2.37,2.37,0,0,0,.907,1.85,2.841,2.841,0,0,0,3.552,0,2.37,2.37,0,0,0,.907-1.85V2.178h4.062V4.842a2.37,2.37,0,0,0,.907,1.85,2.841,2.841,0,0,0,3.552,0,2.37,2.37,0,0,0,.907-1.85V2.178h2.1A2.179,2.179,0,0,1,25,4.343V22.191a2.15,2.15,0,0,1-.641,1.529,2.188,2.188,0,0,1-1.541.636H12.8a4.069,4.069,0,0,0,.291-.716c.021-.069.039-.139.056-.209h8.97a1.716,1.716,0,0,0,1.716-1.7V8.445H2.895v3.5A4.667,4.667,0,0,0,1.73,12V4.342A2.181,2.181,0,0,1,3.911,2.178ZM17.8,17.264h2.858a.364.364,0,0,1,.364.361v2.359a.365.365,0,0,1-.364.361H17.8a.364.364,0,0,1-.364-.361V17.625A.364.364,0,0,1,17.8,17.264ZM6.075,11.13H8.933a.364.364,0,0,1,.364.361v2.359a.365.365,0,0,1-.364.361H6.075a.364.364,0,0,1-.364-.361V11.492a.364.364,0,0,1,.364-.361Zm11.722,0h2.858a.365.365,0,0,1,.364.361v2.359a.365.365,0,0,1-.364.361H17.8a.364.364,0,0,1-.364-.361V11.492A.364.364,0,0,1,17.8,11.13Zm-5.707,0h2.858a.364.364,0,0,1,.364.361v2.359a.365.365,0,0,1-.364.361H12.091a.364.364,0,0,1-.364-.361V11.492A.364.364,0,0,1,12.091,11.13Zm0,6.134h2.858a.364.364,0,0,1,.364.361v2.359a.365.365,0,0,1-.364.361H12.091a.364.364,0,0,1-.364-.361V17.625A.364.364,0,0,1,12.091,17.264ZM3.37,18.509a9.191,9.191,0,0,0,1.272,1.713,8.138,8.138,0,0,0,2.267,1.659.23.23,0,0,0,.2.01,1.475,1.475,0,0,0,.521-.5c.364-.476.815-1.066,1.452-.771l.038.021,2.124,1.212c.007,0,.014.01.021.014a.95.95,0,0,1,.4.819,2.2,2.2,0,0,1-.312,1.045c-.75,1.307-2.884,1.48-4.2,1.076A11.631,11.631,0,0,1,4.174,23.2,12.269,12.269,0,0,1,.9,19.517a5.937,5.937,0,0,1-.846-3.788A2.714,2.714,0,0,1,.983,14a2.5,2.5,0,0,1,1.847-.489.266.266,0,0,1,.213.135L4.4,15.934a.71.71,0,0,1,.115.763,1.509,1.509,0,0,1-.521.58c-.245.209-.844.522-.805.878a1.119,1.119,0,0,0,.177.354ZM16.982.857a1.076,1.076,0,0,1,2.107,0V4.842a1.076,1.076,0,0,1-2.107,0V.857Zm-9.429,0A.97.97,0,0,1,8.607,0,.971.971,0,0,1,9.66.857V4.842A.971.971,0,0,1,8.607,5.7a.97.97,0,0,1-1.053-.857V.857Z" transform="translate(-0.001 0)"/>
</svg>
