<?xml version="1.0" encoding="UTF-8"?>
<svg id="Layer_2" data-name="Layer 2" xmlns="http://www.w3.org/2000/svg" viewBox="0 0 455.08 173.48">
  <defs>
    <style>
      .cls-1 {
        fill: #47a96e;
        font-family: Roboto-Regular, Roboto;
        font-size: 154px;
      }

      .cls-2 {
        fill: #fff;
        stroke: #47a96e;
      }

      .cls-2, .cls-3 {
        stroke-miterlimit: 10;
        stroke-width: 4px;
      }

      .cls-3 {
        fill: none;
        stroke: #39b54a;
      }
    </style>
  </defs>
  <g id="Layer_1-2" data-name="Layer 1">
    <path class="cls-2" d="m117.04,31.23h0c-13.24-13.24-34.72-13.24-47.96,0l-4.59,4.59-4.59-4.59c-13.24-13.24-34.72-13.24-47.96,0h0c-13.24,13.24-13.24,34.72,0,47.96l3.03,3.03,1.56,1.56,47.96,47.96,3.63-3.63c.38-.38.8-.8,1.27-1.27l1.76-1.76,1.1-1.1,7.09-7.09c.48-.48.98-.98,1.49-1.49l.71-.71c1.23-1.23,2.55-2.55,3.97-3.97l5.48-5.48c.98-.98,1.99-1.99,3.04-3.04l1.93-1.93c2.08-2.08,4.29-4.3,6.66-6.66l2.98-2.98,6.87-6.87,4.59-4.59c13.24-13.24,13.24-34.72,0-47.96Z"/>
    <line class="cls-3" x1="175.62" y1="21.3" x2="175.62" y2="131.74"/>
    <text class="cls-1" transform="translate(212.05 131.74)"><tspan x="0" y="0">HIS</tspan></text>
    <path class="cls-2" d="m14.85,82.23h7.84c.7,0,1.35-.34,1.74-.92l12.51-18.34c.49-.72,1.59-.61,1.93.19l11.91,28.06c.04.09.16.1.21.02l12.54-19.43c.46-.71,1.48-.73,1.97-.04l7.42,10.46,13.24-30.49c.44-1,1.86-1.01,2.3,0l12.65,28.74c.47,1.07,1.53,1.76,2.7,1.76h10.2"/>
  </g>
</svg>